<svg xmlns="http://www.w3.org/2000/svg" width="208.485" height="208.719" viewBox="0 0 208.485 208.719">
  <defs>
    <style>
      .cls-1 {
        fill: #5074b3;
      }

      .cls-2 {
        fill: #fff;
      }
    </style>
  </defs>
  <g id="facebook.icon" transform="translate(-13.292 -13.005)">
    <path id="Pfad_24" data-name="Pfad 24" class="cls-1" d="M43.988,13s-30.7,6.515-30.7,32.264V189.286s2.43,32,35.187,32.2c36.528.233,140.722,0,140.722,0s32.576-6.156,32.576-32.2V45.569S215.848,13,190.4,13Z" transform="translate(0)"/>
    <path id="Pfad_25" data-name="Pfad 25" class="cls-2" d="M230.366,162.044s-4.675-33.2,18.524-50.633c14.4-10.818,27.871-7.824,49.537-7.453v35.263s-22.625-.82-27.714,0-6.393,6.56-6.56,9.02,0,12.3,0,12.3h34.274v37.723H264.153v76.985H229.878V198.266H204.94V162.044h25.426Z" transform="translate(-113.609 -53.528)"/>
  </g>
</svg>
