<svg xmlns="http://www.w3.org/2000/svg" width="85.615" height="84.859" viewBox="0 0 85.615 84.859">
    <defs>
        <style>
            .cls-1{fill:#161c89}
        </style>
    </defs>
    <g id="ps.icon" transform="translate(-31.96 -34.054)">
        <path id="Pfad_6" d="M59.2 44.585a40.047 40.047 0 1 1-13.277 13.81c.147-.255.3-.507.45-.758a1.107 1.107 0 0 0-1.91-1.117 42.249 42.249 0 1 0 77.614 29.9 42.245 42.245 0 0 0-63.994-43.745c-1.2.757-.1 2.672 1.116 1.91z" class="cls-1" data-name="Pfad 6" transform="translate(-5.249 -1.763)"/>
        <path id="Pfad_7" d="M314.353 158.211s-1.37-8.218 8.744-7.269v4.53s-2.907-.105-3.56 0-.821.843-.843 1.159 0 1.58 0 1.58h4.4v4.846h-4.4v9.89h-4.4v-10.1l-3.2-.105v-4.319z" class="cls-1" data-name="Pfad 7" transform="translate(-228.781 -95.743)"/>
        <path id="Pfad_8" d="M167.374 172.466c-5.749 0-6.749-.666-8.648-2.307l-.232-.2c-1.08-.927-1.7-2.952-1.9-6.191a32.735 32.735 0 0 1 .258-6.656 8.356 8.356 0 0 1 1.871-4.095 5.692 5.692 0 0 1 3.235-1.973 50.828 50.828 0 0 1 7.222-.46h.125a15.078 15.078 0 0 1 5.587 1.057c2.381 1.014 3.757 2.669 3.981 4.787.831 7.885.192 12.267-2.012 13.789l-.247.171c-2.461 1.705-3.187 2.067-9.085 2.078zm1.932-19.67h-.1a49.593 49.593 0 0 0-6.862.427c-1.293.226-2.891 1.794-3.305 4.255a30.757 30.757 0 0 0-.231 6.154c.175 2.864.72 4.294 1.133 4.648l.237.2c1.531 1.323 2.047 1.769 7.2 1.769h.152c5.414-.011 5.735-.234 7.829-1.684l.249-.173c.646-.446 2.044-2.484 1.069-11.737-.326-3.055-4.964-3.855-7.372-3.855z" class="cls-1" data-name="Pfad 8" transform="translate(-102.104 -95.512)"/>
        <path id="Pfad_9" d="M194.3 191.953a5.584 5.584 0 1 1 5.584-5.584 5.59 5.59 0 0 1-5.584 5.584zm0-8.955a3.371 3.371 0 1 0 3.371 3.371A3.375 3.375 0 0 0 194.3 183z" class="cls-1" data-name="Pfad 9" transform="translate(-128.485 -120.265)"/>
        <circle id="Ellipse_1" cx="1.054" cy="1.054" r="1.054" class="cls-1" data-name="Ellipse 1" transform="translate(69.98 59.519)"/>
        <path id="Pfad_10" d="M169.653 301.57s-.211-2.634 1.264-3.9a4.841 4.841 0 0 1 4.425-1.159 5.909 5.909 0 0 1 2 1.264 6.28 6.28 0 0 0 2.976-1.44 14.689 14.689 0 0 1-2.133 2.616 8.27 8.27 0 0 0 2.845-.65s-1.686 2.528-2.318 2.528c0 0-.221 5.584-3.271 9.271s-9.687 5.795-16.219 2a10.011 10.011 0 0 0 6.427-1.9s-2.634.843-4.214-3.161a3.719 3.719 0 0 0 1.791 0s-3.5-1.58-3.382-4.319c0 0 .958.948 1.8.422 0 0-3.266-1.9-1.264-6.111.002.009 5.902 5.593 9.273 4.539z" class="cls-1" data-name="Pfad 10" transform="translate(-104.309 -214.976)"/>
        <path id="Pfad_11" d="M287.723 295.4l.948 1.475s1.159-1.369 1.9-1.159 1.159 1.694 2.107 4.639 1.054 8.854 4.635 8.955 10.219-8.748 10.851-13.911-1.9-5.057-4.214-4.846-4.425 4.635-4.425 4.635 3.371-.211 2.845 1.37-1.475 5.9-3.266 5.794-1.37-10.43-4.109-11.378-5.376 2.846-7.272 4.426z" class="cls-1" data-name="Pfad 11" transform="translate(-209.631 -210.175)"/>
        <circle id="Ellipse_2" cx="6.729" cy="6.729" r="6.729" class="cls-1" data-name="Ellipse 2" transform="translate(38.295 40.586)"/>
        <circle id="Ellipse_3" cx="3.635" cy="3.635" r="3.635" class="cls-1" data-name="Ellipse 3" transform="translate(31.96 34.054)"/>
    </g>
</svg>
