<svg xmlns="http://www.w3.org/2000/svg" width="89.358" height="85.359" viewBox="0 0 89.358 85.359">
    <defs>
        <style>
            .cls-1{fill:#161c89}
        </style>
    </defs>
    <g id="sm.icon" transform="translate(-30.797 -44.809)">
        <path id="Pfad_12" d="M149.208 242.457a96.341 96.341 0 0 1-18.931-1.656c-5.6-1.181-8.441-2.79-8.441-4.783s2.84-3.6 8.441-4.783a96.327 96.327 0 0 1 18.931-1.656 96.328 96.328 0 0 1 18.931 1.656c5.6 1.181 8.441 2.79 8.441 4.783s-2.84 3.6-8.441 4.783a96.342 96.342 0 0 1-18.931 1.656zm0-11.185a94.634 94.634 0 0 0-18.582 1.62c-5.614 1.184-7.1 2.563-7.1 3.126s1.483 1.943 7.1 3.126a94.633 94.633 0 0 0 18.582 1.62 94.619 94.619 0 0 0 18.582-1.62c5.614-1.184 7.1-2.563 7.1-3.126s-1.484-1.943-7.1-3.126a94.633 94.633 0 0 0-18.582-1.62z" class="cls-1" data-name="Pfad 12" transform="translate(-73.936 -150.058)"/>
        <path id="Pfad_13" d="M144.874 270.866a102.9 102.9 0 0 1-19.57-1.655c-5.863-1.195-8.713-2.76-8.713-4.784a2.424 2.424 0 0 1 .806-1.727 4.621 4.621 0 0 1 .5-.428l1.013 1.357a3.014 3.014 0 0 0-.318.271.9.9 0 0 0-.308.527c0 .562 1.538 1.939 7.359 3.125a101.192 101.192 0 0 0 19.232 1.621 101.2 101.2 0 0 0 19.232-1.621c5.82-1.186 7.359-2.563 7.359-3.125 0-.186-.186-.444-.509-.707l1.069-1.313a2.625 2.625 0 0 1 1.133 2.021c0 2.024-2.85 3.589-8.714 4.784a102.926 102.926 0 0 1-19.571 1.654z" class="cls-1" data-name="Pfad 13" transform="translate(-69.675 -176.609)"/>
        <path id="Pfad_14" d="M142.656 291.189a115.757 115.757 0 0 1-19.984-1.537c-5.7-1.051-8.727-2.454-9-4.17a2.509 2.509 0 0 1-.136-.812v-15.157a2.534 2.534 0 0 1 1.034-2.038l.75 1.025a1.244 1.244 0 0 0-.515 1.013v15.158a1.255 1.255 0 0 0 .081.438l.028.075.008.079c.019.174.4 1.743 7.98 3.14a114.492 114.492 0 0 0 19.754 1.516 113.612 113.612 0 0 0 19.946-1.551c6.152-1.156 7.793-2.522 7.793-3.147a.412.412 0 0 0-.013-.092l-.028-.123.021-.125a1.254 1.254 0 0 0 .02-.211v-15.157a1.25 1.25 0 0 0-.782-1.163l.478-1.176a2.514 2.514 0 0 1 1.575 2.339v15.158a2.433 2.433 0 0 1-.02.3 1.6 1.6 0 0 1 .02.247c-.002 4.382-17.35 5.971-29.01 5.971z" class="cls-1" data-name="Pfad 14" transform="translate(-67.193 -180.59)"/>
        <path id="Pfad_15" d="M249.3 243.2c-2.032 0-4.218-.532-4.218-1.7s2.187-1.7 4.218-1.7 4.218.532 4.218 1.7-2.187 1.7-4.218 1.7zm0-2.556c-2.212 0-3.372.635-3.372.855s1.16.855 3.372.855 3.372-.635 3.372-.855-1.16-.851-3.372-.851z" class="cls-1" data-name="Pfad 15" transform="translate(-174.027 -158.36)"/>
        <path id="Pfad_16" d="M249.3 269.4c-2.032 0-4.218-.532-4.218-1.7s2.187-1.7 4.218-1.7 4.218.532 4.218 1.7-2.187 1.7-4.218 1.7zm0-2.557c-2.212 0-3.372.635-3.372.855s1.16.855 3.372.855 3.372-.635 3.372-.855-1.16-.857-3.372-.857z" class="cls-1" data-name="Pfad 16" transform="translate(-174.027 -179.632)"/>
        <path id="Pfad_17" d="M183.788 253.47c-2.032 0-4.218-.532-4.218-1.7s2.187-1.7 4.218-1.7 4.218.532 4.218 1.7-2.186 1.7-4.218 1.7zm0-2.557c-2.213 0-3.372.635-3.372.855s1.159.855 3.372.855 3.372-.636 3.372-.855-1.16-.854-3.372-.854z" class="cls-1" data-name="Pfad 17" transform="translate(-120.824 -166.697)"/>
        <path id="Pfad_18" d="M314.813 253.47c-2.031 0-4.218-.532-4.218-1.7s2.187-1.7 4.218-1.7 4.219.532 4.219 1.7-2.187 1.7-4.219 1.7zm0-2.557c-2.212 0-3.371.635-3.371.855s1.159.855 3.371.855 3.372-.636 3.372-.855-1.159-.854-3.372-.854z" class="cls-1" data-name="Pfad 18" transform="translate(-227.233 -166.697)"/>
        <path id="Pfad_19" d="M120.154 88.9c0-24.311-20.043-44.089-44.679-44.089S30.8 64.587 30.8 88.9a44.052 44.052 0 0 0 .454 6.3l4.4-.638c0-.024-.006-.048-.01-.071h1.295v8.761a3.259 3.259 0 0 0 3.346 3.166h1.308a3.26 3.26 0 0 0 3.345-3.166V81.91a3.26 3.26 0 0 0-3.345-3.166h-1.314a3.26 3.26 0 0 0-3.346 3.166v7.59h-1.686c0-.2-.005-.4-.005-.6 0-21.86 18.049-39.645 40.234-39.645S115.71 67.038 115.71 88.9c0 .2 0 .4-.006.6h-1.814v-7.59a3.26 3.26 0 0 0-3.346-3.166h-1.308a3.26 3.26 0 0 0-3.346 3.166v21.344a3.26 3.26 0 0 0 3.346 3.166h1.308a3.26 3.26 0 0 0 3.346-3.166v-8.76h1.421c-.025.176-.051.352-.078.527l1.58.249c.077 7.263-2.184 13.37-6.739 18.175-7.96 8.4-21.245 11.1-29.272 11.974-1.055-1.413-3.981-2.429-7.428-2.429-4.336 0-7.85 1.607-7.85 3.589s3.515 3.59 7.85 3.59c3.6 0 6.626-1.107 7.555-2.616a77.222 77.222 0 0 0 7.057-1.08c7.135-1.44 17.025-4.615 23.619-11.567 4.878-5.142 7.337-11.627 7.328-19.3l.69.109a43.973 43.973 0 0 0 .531-6.815z" class="cls-1" data-name="Pfad 19"/>
    </g>
</svg>
