<svg xmlns="http://www.w3.org/2000/svg" width="185" height="34.016" viewBox="0 0 185 34.016">
  <defs>
    <style>
      .cls-1 {
        fill: #fff;
      }
    </style>
  </defs>
  <g id="SPION_1_" data-name="SPION (1)" transform="translate(0.003 0.045)">
    <path id="Pfad_1" data-name="Pfad 1" class="cls-1" d="M66.46,357.855a9.557,9.557,0,0,1-7.012-2.89,9.724,9.724,0,0,1-2.89-7.052,9.6,9.6,0,0,1,2.89-6.97A9.435,9.435,0,0,1,66.46,338v5.695a4.251,4.251,0,0,0-1.657.3,3.874,3.874,0,0,0-1.417.935,4.366,4.366,0,0,0,0,5.992,4.106,4.106,0,0,0,3.06,1.275H74.9a9.917,9.917,0,1,1,0,19.8v-5.7a4.25,4.25,0,0,0,1.658-.3,3.967,3.967,0,0,0,1.417-.892,3.788,3.788,0,0,0,.893-1.36,4.278,4.278,0,0,0,.34-1.657,4.224,4.224,0,0,0-1.275-2.975,4.08,4.08,0,0,0-3.017-1.275Z" transform="translate(-56.56 -338.04)"/>
    <path id="Pfad_2" data-name="Pfad 2" class="cls-1" d="M242.815,349.356a11.319,11.319,0,0,1-11.3,11.347H220.177V372H214.51V355h17a5.383,5.383,0,0,0,3.952-1.657,5.463,5.463,0,0,0,1.7-3.995,5.735,5.735,0,0,0-5.652-5.652H220.177L214.51,338h17a10.914,10.914,0,0,1,7.99,3.315,11.075,11.075,0,0,1,3.315,8.044Z" transform="translate(-169.76 -338.041)"/>
    <path id="Pfad_3" data-name="Pfad 3" class="cls-1" d="M374.667,366.316,369,372V338l5.667,5.621Z" transform="translate(-280.478 -338.044)"/>
    <path id="Pfad_4" data-name="Pfad 4" class="cls-1" d="M456.495,343.05a16.828,16.828,0,1,1-11.985-5.015A16.249,16.249,0,0,1,456.495,343.05Zm-20.017,3.995a11.333,11.333,0,1,0,8.032-3.315A10.874,10.874,0,0,0,436.477,347.045Z" transform="translate(-322.41 -338.067)"/>
    <path id="Pfad_5" data-name="Pfad 5" class="cls-1" d="M638.02,338v34l-28.26-25.415V338l22.61,20.357V338Z" transform="translate(-453.023 -338.044)"/>
  </g>
</svg>
